Coordinates
version=1
nRows=9
nColumns=63
inDegrees=yes

Units are S.I. units (second, meters, Newtons, ...)
If the header above contains a line with 'inDegrees', this indicates whether rotational values are in degrees (yes) or radians (no).

endheader
time	pelvis_tilt	pelvis_list	pelvis_rotation	pelvis_tx	pelvis_ty	pelvis_tz	hip_flexion_r	hip_adduction_r	hip_rotation_r	knee_angle_r	knee_angle_r_beta	ankle_angle_r	subtalar_angle_r	mtp_angle_r	hip_flexion_l	hip_adduction_l	hip_rotation_l	knee_angle_l	knee_angle_l_beta	ankle_angle_l	subtalar_angle_l	mtp_angle_l	L5_S1_Flex_Ext	L5_S1_Lat_Bending	L5_S1_axial_rotation	L4_L5_Flex_Ext	L4_L5_Lat_Bending	L4_L5_axial_rotation	L3_L4_Flex_Ext	L3_L4_Lat_Bending	L3_L4_axial_rotation	L2_L3_Flex_Ext	L2_L3_Lat_Bending	L2_L3_axial_rotation	L1_L2_Flex_Ext	L1_L2_Lat_Bending	L1_L2_axial_rotation	L1_T12_Flex_Ext	L1_T12_Lat_Bending	L1_T12_axial_rotation	Abs_r3	Abs_r2	Abs_r1	Abs_t1	Abs_t2	neck_flexion	neck_bending	neck_rotation	arm_flex_r	arm_add_r	arm_rot_r	elbow_flex_r	pro_sup_r	wrist_flex_r	wrist_dev_r	arm_flex_l	arm_add_l	arm_rot_l	elbow_flex_l	pro_sup_l	wrist_flex_l	wrist_dev_l
1.433333	-5.152615	1.412210	103.389674	0.308133	0.766046	0.865391	-5.873120	1.476653	-8.726060	4.461585	0.077869	20.010479	6.454467	0.000000	-3.423949	-1.453424	7.038806	7.870177	0.137360	20.468870	4.741803	0.000000	-0.128363	0.191529	-1.015577	-0.238383	0.254734	-1.079051	-0.210888	0.465684	-1.079051	-0.146706	0.465684	-0.888630	-0.119198	0.390566	-0.825156	-0.073347	0.296679	-0.761683	-0.916885	2.166615	-5.648336	0.000000	0.000000	12.111479	-0.816729	-0.426958	82.206849	-10.137033	6.909832	104.408763	89.545680	-21.092218	7.173739	79.644711	-23.636350	15.335876	107.779467	89.682801	-48.366362	-23.044604
1.450000	-5.213539	1.555610	103.399875	0.308357	0.766289	0.864838	-6.107368	1.502506	-8.392013	4.382725	0.076493	19.996562	6.034945	0.000000	-3.631028	-1.449074	7.048374	7.831790	0.136691	20.446182	4.687307	0.000000	-0.130141	0.180144	-1.024166	-0.241685	0.239591	-1.088176	-0.213809	0.438002	-1.088176	-0.148738	0.438002	-0.896145	-0.120849	0.367350	-0.832135	-0.074363	0.279043	-0.768125	-0.929584	2.037825	-5.696105	0.000000	0.000000	12.213374	-0.920230	-0.525978	81.313874	-10.369607	6.710415	105.309553	89.554144	-21.341328	7.039413	78.610461	-23.769425	14.664265	108.741521	89.682029	-48.068757	-23.169209
1.466667	-5.275305	1.692315	103.400346	0.308584	0.766544	0.864445	-6.323299	1.522375	-8.031518	4.321103	0.075417	19.945209	5.574951	0.000000	-3.819449	-1.435195	7.023852	7.800317	0.136141	20.414733	4.643229	0.000000	-0.134730	0.168884	-1.020056	-0.250207	0.224615	-1.083810	-0.221348	0.410624	-1.083810	-0.153983	0.410624	-0.892549	-0.125110	0.344388	-0.828796	-0.076985	0.261601	-0.765042	-0.962362	1.910446	-5.673248	0.000000	0.000000	12.281837	-1.087626	-0.645803	80.249384	-10.656859	6.400613	106.409374	89.556720	-21.548938	7.027324	77.523535	-23.889165	14.091320	109.699643	89.680487	-47.794663	-23.345099
1.483333	-5.326066	1.794606	103.383810	0.308786	0.766764	0.864205	-6.483393	1.531168	-7.741809	4.293641	0.074938	19.885971	5.224432	0.000000	-3.956197	-1.417073	6.923891	7.781811	0.135818	20.384652	4.661970	0.000000	-0.137029	0.159021	-1.002325	-0.254476	0.211498	-1.064971	-0.225124	0.386645	-1.064971	-0.156610	0.386645	-0.877035	-0.127245	0.324276	-0.814389	-0.078298	0.246324	-0.751744	-0.978781	1.798882	-5.574633	0.000000	0.000000	12.255278	-1.340362	-0.809692	79.017936	-10.987565	5.970760	107.687500	89.551958	-21.693547	7.078045	76.362795	-23.962499	13.573527	110.633220	89.677978	-47.312221	-23.499071
1.500000	-5.367237	1.878175	103.352504	0.308956	0.766955	0.864120	-6.601404	1.531004	-7.523940	4.308655	0.075200	19.832922	4.978373	0.000000	-4.055564	-1.396239	6.759497	7.783046	0.135840	20.366967	4.739534	0.000000	-0.140069	0.151123	-0.972261	-0.260123	0.200994	-1.033028	-0.230120	0.367441	-1.033028	-0.160085	0.367441	-0.850729	-0.130068	0.308170	-0.789962	-0.080036	0.234090	-0.729196	-1.000500	1.709535	-5.407425	0.000000	0.000000	12.098725	-1.658387	-0.989395	77.640760	-11.338800	5.422200	109.123656	89.543051	-21.778669	7.200610	75.157272	-23.970825	13.135814	111.495929	89.675335	-46.682647	-23.619164
1.516667	-5.406809	1.952295	103.299829	0.309097	0.767127	0.864176	-6.690575	1.516620	-7.348409	4.361240	0.076118	19.784582	4.797902	0.000000	-4.135294	-1.366166	6.533580	7.795281	0.136053	20.357500	4.871729	0.000000	-0.145056	0.143746	-0.926420	-0.269383	0.191182	-0.984321	-0.238312	0.349504	-0.984321	-0.165784	0.349504	-0.810617	-0.134699	0.293127	-0.752716	-0.082885	0.222663	-0.694815	-1.036118	1.626084	-5.152470	0.000000	0.000000	11.756309	-1.955346	-1.227207	76.120838	-11.731509	4.761198	110.706165	89.531472	-21.858752	7.407502	73.951580	-23.877121	12.876928	112.223660	89.672156	-46.191577	-23.775598
1.533333	-5.429816	2.015555	103.228504	0.309175	0.767275	0.864390	-6.741725	1.498902	-7.255843	4.455991	0.077772	19.746670	4.725712	0.000000	-4.187306	-1.340492	6.255691	7.823702	0.136549	20.366105	5.054555	0.000000	-0.151313	0.139964	-0.872465	-0.281003	0.186152	-0.926994	-0.248592	0.340308	-0.926994	-0.172936	0.340308	-0.763407	-0.140509	0.285414	-0.708878	-0.086460	0.216804	-0.654348	-1.080813	1.583299	-4.852387	0.000000	0.000000	11.209685	-2.240648	-1.447288	74.498957	-12.131568	4.069220	112.343976	89.519198	-21.921356	7.574706	72.666880	-23.674427	12.628043	112.880198	89.668482	-45.383251	-23.749242
1.550000	-5.430855	2.061868	103.134776	0.309198	0.767398	0.864733	-6.752802	1.482922	-7.252193	4.577395	0.079891	19.709982	4.769883	0.000000	-4.213225	-1.325649	5.929485	7.853659	0.137072	20.385374	5.290720	0.000000	-0.156385	0.139479	-0.806804	-0.290422	0.185507	-0.857230	-0.256924	0.339129	-0.857230	-0.178732	0.339129	-0.705954	-0.145219	0.284425	-0.655529	-0.089358	0.216053	-0.605103	-1.117041	1.577812	-4.487204	0.000000	0.000000	10.438311	-2.453294	-1.706595	72.770237	-12.567397	3.366871	114.001971	89.508220	-21.960329	7.677012	71.314020	-23.326639	12.437001	113.441042	89.664175	-44.424083	-23.607691
1.566667	-5.409359	2.096728	103.021269	0.309173	0.767494	0.865204	-6.721902	1.470267	-7.341417	4.734713	0.082636	19.686950	4.931398	0.000000	-4.210969	-1.323380	5.577745	7.903053	0.137934	20.423828	5.540077	0.000000	-0.161706	0.144094	-0.742293	-0.300303	0.191645	-0.788686	-0.265666	0.350351	-0.788686	-0.184813	0.350351	-0.649506	-0.150160	0.293837	-0.603113	-0.092399	0.223202	-0.556720	-1.155046	1.630022	-4.128409	0.000000	0.000000	9.497516	-2.608476	-1.891563	70.994274	-12.972073	2.750373	115.585507	89.499395	-21.949968	7.675310	69.833298	-22.903406	12.168498	114.008310	89.658854	-43.109017	-23.232088
